<svg xmlns="http://www.w3.org/2000/svg" width="62" height="74" viewBox="0 0 62 74" fill="none">
    <g opacity="1">
        <path opacity="0.3" d="M42.6329 15.0331C40.9641 15.0315 39.3641 14.3678 38.1841 13.1878C37.0041 12.0078 36.3405 10.4078 36.3389 8.73899V0H8.21401C6.03552 0 3.94626 0.865427 2.40584 2.40585C0.865408 3.94628 0 6.0355 0 8.21399V57.7301C0.00323505 59.9064 0.870063 61.9926 2.41014 63.5304C3.95022 65.0682 6.03763 65.9319 8.21401 65.9319H41.9767C44.153 65.9319 46.2404 65.0682 47.7805 63.5304C49.3206 61.9926 50.1874 59.9064 50.1907 57.7301V15.0331H42.6329Z" fill="#A140FF"/>
    </g>
    <path d="M50.1907 15.0331H42.633C40.9642 15.0315 39.3642 14.3678 38.1842 13.1878C37.0042 12.0078 36.3405 10.4078 36.3389 8.73899V0L50.1907 15.0331Z" fill="#A140FF"/>
    <path d="M39.8643 46.0425H8.35132C8.04774 46.0425 7.75658 45.9219 7.54192 45.7072C7.32726 45.4926 7.20667 45.2014 7.20667 44.8978C7.20747 44.5948 7.32842 44.3044 7.543 44.0904C7.75758 43.8764 8.04826 43.7562 8.35132 43.7562H39.8643C40.1671 43.7562 40.4575 43.8765 40.6716 44.0905C40.8857 44.3046 41.0059 44.5951 41.0059 44.8978C41.0063 45.048 40.9771 45.1968 40.9199 45.3357C40.8627 45.4745 40.7787 45.6007 40.6726 45.707C40.5666 45.8133 40.4406 45.8977 40.3019 45.9553C40.1632 46.0129 40.0145 46.0425 39.8643 46.0425Z" fill="#A140FF"/>
    <path d="M39.8643 33.1492H8.35132C8.04826 33.1492 7.75758 33.0289 7.543 32.8149C7.32842 32.6009 7.20747 32.3106 7.20667 32.0076C7.20667 31.704 7.32726 31.4128 7.54192 31.1981C7.75658 30.9834 8.04774 30.8629 8.35132 30.8629H39.8643C40.0145 30.8629 40.1632 30.8925 40.3019 30.9501C40.4406 31.0077 40.5666 31.092 40.6726 31.1983C40.7787 31.3047 40.8627 31.4309 40.9199 31.5698C40.9771 31.7086 41.0063 31.8574 41.0059 32.0076C41.0059 32.3103 40.8857 32.6007 40.6716 32.8148C40.4575 33.0289 40.1671 33.1492 39.8643 33.1492Z" fill="#A140FF"/>
    <path d="M39.8643 39.5957H8.35132C8.04774 39.5957 7.75658 39.4751 7.54192 39.2605C7.32726 39.0458 7.20667 38.7547 7.20667 38.4511C7.20747 38.148 7.32842 37.8577 7.543 37.6437C7.75758 37.4297 8.04826 37.3095 8.35132 37.3095H39.8643C40.1671 37.3095 40.4575 37.4298 40.6716 37.6439C40.8857 37.858 41.0059 38.1483 41.0059 38.4511C41.0063 38.6013 40.9771 38.7501 40.9199 38.8889C40.8627 39.0278 40.7787 39.154 40.6726 39.2603C40.5666 39.3667 40.4406 39.451 40.3019 39.5086C40.1632 39.5661 40.0145 39.5957 39.8643 39.5957Z" fill="#A140FF"/>
    <path d="M27.4349 26.7024H8.35132C8.04826 26.7024 7.75758 26.5823 7.543 26.3683C7.32842 26.1543 7.20747 25.8639 7.20667 25.5608C7.20667 25.2573 7.32726 24.9661 7.54192 24.7515C7.75658 24.5368 8.04774 24.4162 8.35132 24.4162H27.4349C27.738 24.417 28.0284 24.5379 28.2424 24.7525C28.4564 24.9671 28.5765 25.2578 28.5765 25.5608C28.5757 25.8634 28.4552 26.1532 28.2413 26.3672C28.0274 26.5811 27.7375 26.7016 27.4349 26.7024Z" fill="#A140FF"/>
    <path d="M27.4349 20.2558H8.35132C8.04826 20.2558 7.75758 20.1355 7.543 19.9215C7.32842 19.7075 7.20747 19.4172 7.20667 19.1142C7.20667 18.8106 7.32726 18.5194 7.54192 18.3047C7.75658 18.0901 8.04774 17.9695 8.35132 17.9695H27.4349C27.738 17.9703 28.0284 18.0913 28.2424 18.3058C28.4564 18.5204 28.5765 18.8111 28.5765 19.1142C28.5757 19.4167 28.4552 19.7066 28.2413 19.9205C28.0274 20.1344 27.7375 20.255 27.4349 20.2558Z" fill="#A140FF"/>
    <path d="M56.146 52.077H17.9788C15.2714 52.077 13.0766 54.2718 13.0766 56.9792V68.3585C13.0766 71.0659 15.2714 73.2607 17.9788 73.2607H56.146C58.8534 73.2607 61.0482 71.0659 61.0482 68.3585V56.9792C61.0482 54.2718 58.8534 52.077 56.146 52.077Z" fill="#A140FF"/>
    <path d="M25.5975 65.1321V67.3512H23.302V65.1321H25.5975Z" fill="white"/>
    <path d="M28.9734 64.131V67.3512H26.7543V58.1727H30.3501C31.4398 58.1727 32.2731 58.4444 32.8439 58.9846C33.1327 59.2685 33.3582 59.6102 33.5055 59.9874C33.6528 60.3646 33.7186 60.7687 33.6985 61.1732C33.7097 61.7068 33.5779 62.2337 33.317 62.6994C33.0505 63.1546 32.6555 63.521 32.1815 63.7525C31.6098 64.0227 30.9821 64.1535 30.3501 64.1341L28.9734 64.131ZM31.4398 61.1732C31.4398 60.3592 30.9941 59.9522 30.1028 59.9522H28.9734V62.3423H30.1028C30.9941 62.3504 31.4398 61.9607 31.4398 61.1732Z" fill="white"/>
    <path d="M42.4682 65.1382C42.086 65.8323 41.5087 66.399 40.8076 66.7682C40.0189 67.172 39.1417 67.3724 38.2558 67.3512H34.7914V58.1727H38.2558C39.1424 58.1504 40.0208 58.3464 40.8138 58.7435C41.5128 59.1047 42.0887 59.6657 42.4682 60.3551C42.8653 61.087 43.0652 61.9096 43.0481 62.7421C43.0647 63.5775 42.8649 64.4029 42.4682 65.1382ZM40.0812 64.6773C40.3293 64.4226 40.5215 64.119 40.6456 63.7857C40.7696 63.4525 40.8227 63.0971 40.8015 62.7421C40.8229 62.3876 40.7698 62.0326 40.6457 61.6998C40.5217 61.367 40.3294 61.0639 40.0812 60.8099C39.526 60.3228 38.8008 60.0748 38.0635 60.1201H37.0105V65.3641H38.0635C38.8002 65.4089 39.5248 65.1622 40.0812 64.6773Z" fill="white"/>
    <path d="M50.2913 58.1727V59.9401H46.5277V61.9516H49.4336V63.6395H46.5277V67.3512H44.3055V58.1727H50.2913Z" fill="white"/>
    <path d="M39.3059 17.9695H33.9092C32.9685 17.9695 32.206 18.7321 32.206 19.6727V25.0694C32.206 26.01 32.9685 26.7726 33.9092 26.7726H39.3059C40.2465 26.7726 41.0091 26.01 41.0091 25.0694V19.6727C41.0091 18.7321 40.2465 17.9695 39.3059 17.9695Z" fill="#A140FF"/>
</svg>